<svg width="26" height="29" viewBox="0 0 26 29" fill="none" xmlns="http://www.w3.org/2000/svg">
<g clip-path="url(#clip0_73_1674)">
<path d="M13 12.9C9.4 12.9 6.5 10 6.5 6.4C6.5 2.8 9.4 0 13 0C16.6 0 19.5 2.9 19.5 6.5C19.5 10.1 16.6 12.9 13 12.9ZM13 2C10.5 2 8.5 4 8.5 6.5C8.5 9 10.5 11 13 11C15.5 11 17.5 9 17.5 6.5C17.5 4 15.5 2 13 2Z" fill="#2B7BC6"/>
<path d="M23.2002 28.9999H2.80021C2.00021 28.9999 1.30021 28.6999 0.800215 28.0999C0.300215 27.4999 0.00021486 26.6999 0.100215 25.8999L0.600215 20.6999C0.800215 17.9999 2.90021 16.7999 3.80021 16.2999L4.00021 16.0999C4.70021 15.6999 6.40022 15.0999 8.10021 14.7999C8.90022 14.6999 9.60021 14.7999 10.2002 15.1999C11.9002 16.3999 14.1002 16.3999 15.7002 15.1999C16.3002 14.7999 17.0002 14.5999 17.8002 14.7999C19.6002 15.0999 21.2002 15.6999 21.9002 16.0999L22.2002 16.2999C23.2002 16.8999 25.2002 17.9999 25.4002 20.6999L25.9002 25.8999C26.0002 26.6999 25.7002 27.4999 25.2002 28.0999C24.7002 28.6999 24.0002 28.9999 23.2002 28.9999ZM8.70021 16.6999C8.60021 16.6999 8.60021 16.6999 8.50021 16.6999C6.60021 17.0999 5.30021 17.5999 5.10021 17.6999C5.00022 17.8999 4.90021 17.8999 4.70021 17.9999C3.80021 18.4999 2.60021 19.1999 2.40021 20.8999L2.00021 26.0999C2.00021 26.2999 2.10021 26.5999 2.20021 26.7999C2.40021 26.8999 2.60021 26.9999 2.80021 26.9999H23.2002C23.4002 26.9999 23.6002 26.8999 23.8002 26.6999C24.0002 26.4999 24.0002 26.2999 24.0002 25.9999L23.5002 20.7999C23.4002 19.1999 22.1002 18.4999 21.2002 17.8999C21.1002 17.7999 21.0002 17.7999 20.9002 17.6999C20.6002 17.4999 19.4002 16.9999 17.5002 16.6999C17.3002 16.6999 17.1002 16.6999 17.0002 16.7999C14.7002 18.4999 11.4002 18.4999 9.10021 16.7999C9.00021 16.7999 8.80021 16.6999 8.70021 16.6999Z" fill="#2B7BC6"/>
</g>
<defs>
<clipPath id="clip0_73_1674">
<rect width="26" height="29" fill="white"/>
</clipPath>
</defs>
</svg>
